<svg width="24" height="24" viewBox="0 0 24 24" fill="none" xmlns="http://www.w3.org/2000/svg">
<path d="M7.977 3.423C7.98633 3.47433 7.99333 3.52333 7.998 3.57C8.00733 3.61667 8.00733 3.668 7.998 3.724C7.998 3.77533 7.99567 3.82433 7.991 3.871C7.991 3.913 7.98633 3.95967 7.977 4.011C7.95367 4.18833 7.89767 4.347 7.809 4.487C7.725 4.627 7.59667 4.746 7.424 4.844C7.26533 4.93733 7.074 5.00967 6.85 5.061C6.626 5.11233 6.374 5.138 6.094 5.138H5.618C5.52933 5.138 5.44067 5.138 5.352 5.138C5.268 5.138 5.18167 5.13333 5.093 5.124C4.99967 5.11933 4.90867 5.11 4.82 5.096C4.736 5.082 4.652 5.06567 4.568 5.047C4.48867 5.033 4.41167 5.01433 4.337 4.991C4.26233 4.963 4.19 4.93033 4.12 4.893C3.99867 4.81367 3.89367 4.732 3.805 4.648C3.721 4.55933 3.658 4.459 3.616 4.347C3.56467 4.23967 3.52733 4.13 3.504 4.018C3.48067 3.906 3.469 3.787 3.469 3.661C3.469 3.53967 3.48067 3.42533 3.504 3.318C3.52733 3.21067 3.56467 3.115 3.616 3.031C3.66733 2.93767 3.735 2.85133 3.819 2.772C3.903 2.688 4.001 2.60867 4.113 2.534C4.16433 2.49667 4.22033 2.46633 4.281 2.443C4.34633 2.41967 4.421 2.39633 4.505 2.373C4.659 2.331 4.82933 2.29133 5.016 2.254C5.10933 2.23533 5.198 2.22367 5.282 2.219C5.37067 2.20967 5.45933 2.20267 5.548 2.198C5.716 2.184 5.86067 2.184 5.982 2.198C6.094 2.20267 6.19433 2.20967 6.283 2.219C6.37633 2.22367 6.46967 2.23533 6.563 2.254C6.64233 2.27267 6.72867 2.296 6.822 2.324C6.92 2.34733 7.01567 2.37767 7.109 2.415C7.151 2.43367 7.19533 2.45467 7.242 2.478C7.28867 2.50133 7.33767 2.52933 7.389 2.562C7.51967 2.64133 7.61067 2.716 7.662 2.786C7.704 2.842 7.74133 2.898 7.774 2.954C7.81133 3.00533 7.84167 3.05667 7.865 3.108C7.893 3.15467 7.91633 3.206 7.935 3.262C7.95367 3.318 7.96767 3.37167 7.977 3.423ZM3.756 6.461C3.64867 6.461 3.546 6.44467 3.448 6.412C3.35467 6.40267 3.28 6.34667 3.224 6.244C3.19133 6.20667 3.168 6.167 3.154 6.125C3.14467 6.083 3.14 6.041 3.14 5.999C3.14 5.90567 3.17733 5.82167 3.252 5.747C3.266 5.733 3.28467 5.719 3.308 5.705C3.33133 5.691 3.35933 5.68167 3.392 5.677C3.41533 5.65833 3.43867 5.649 3.462 5.649C3.49 5.64433 3.52033 5.63733 3.553 5.628C3.57633 5.61867 3.59733 5.614 3.616 5.614C3.63467 5.614 3.65567 5.614 3.679 5.614H7.823C7.86967 5.614 7.90933 5.61867 7.942 5.628C7.97933 5.63267 8.019 5.642 8.061 5.656C8.13567 5.684 8.19867 5.72833 8.25 5.789C8.278 5.82167 8.29433 5.85667 8.299 5.894C8.30833 5.92667 8.313 5.96867 8.313 6.02C8.313 6.15067 8.27567 6.237 8.201 6.279C8.16367 6.31633 8.11933 6.34667 8.068 6.37C8.02133 6.38867 7.97233 6.40267 7.921 6.412C7.823 6.44467 7.711 6.461 7.585 6.461H6.213C6.21767 6.47967 6.22 6.50533 6.22 6.538V7.14C6.22 7.182 6.22 7.22167 6.22 7.259C6.22 7.29633 6.21533 7.32667 6.206 7.35C6.19667 7.40133 6.18733 7.448 6.178 7.49C6.16867 7.532 6.15233 7.57633 6.129 7.623C6.09633 7.70233 6.04033 7.77233 5.961 7.833C5.92367 7.85633 5.884 7.87033 5.842 7.875C5.80467 7.88433 5.76267 7.89133 5.716 7.896C5.66467 7.896 5.618 7.89133 5.576 7.882C5.53867 7.87267 5.50133 7.861 5.464 7.847C5.39867 7.805 5.34967 7.75133 5.317 7.686C5.303 7.64867 5.29133 7.61133 5.282 7.574C5.27733 7.53667 5.27267 7.504 5.268 7.476C5.268 7.448 5.26567 7.41767 5.261 7.385C5.25633 7.35233 5.254 7.32433 5.254 7.301C5.26333 7.273 5.268 7.24267 5.268 7.21C5.268 7.182 5.268 7.15867 5.268 7.14C5.25867 7.084 5.254 7.00933 5.254 6.916C5.254 6.818 5.254 6.734 5.254 6.664V6.461H3.756ZM7.088 3.787C7.088 3.67967 7.06933 3.58867 7.032 3.514C7.00867 3.46733 6.97833 3.42533 6.941 3.388C6.90833 3.35067 6.86633 3.318 6.815 3.29C6.76367 3.25267 6.69833 3.227 6.619 3.213C6.53967 3.19433 6.458 3.185 6.374 3.185C6.234 3.16633 6.059 3.15233 5.849 3.143C5.74633 3.13367 5.646 3.13133 5.548 3.136C5.45 3.14067 5.352 3.14533 5.254 3.15C5.156 3.15933 5.06267 3.17333 4.974 3.192C4.89 3.21067 4.81067 3.241 4.736 3.283C4.57733 3.34367 4.48633 3.44867 4.463 3.598C4.43967 3.696 4.43967 3.77767 4.463 3.843C4.47233 3.88967 4.48633 3.93167 4.505 3.969C4.52367 4.00633 4.554 4.04133 4.596 4.074C4.65667 4.13467 4.74533 4.18367 4.862 4.221C4.96467 4.277 5.11167 4.305 5.303 4.305C5.373 4.31433 5.443 4.32133 5.513 4.326C5.58767 4.33067 5.66933 4.33767 5.758 4.347H6.262C6.43 4.32833 6.584 4.305 6.724 4.277C6.86867 4.21633 6.97133 4.14867 7.032 4.074C7.05067 4.02267 7.06233 3.976 7.067 3.934C7.07167 3.88733 7.07867 3.83833 7.088 3.787Z" fill="#1A74E8"/>
<path d="M9.79908 5.46C9.75241 5.46933 9.71974 5.488 9.70108 5.516C9.68241 5.544 9.67074 5.57667 9.66608 5.614C9.66141 5.65133 9.66141 5.68867 9.66608 5.726C9.67074 5.76333 9.67308 5.79833 9.67308 5.831C9.67308 5.859 9.67308 5.89633 9.67308 5.943C9.67308 5.985 9.67308 6.03167 9.67308 6.083C9.67308 6.12967 9.67308 6.17633 9.67308 6.223C9.67774 6.26967 9.68241 6.30933 9.68708 6.342C9.68708 6.37 9.68474 6.40967 9.68008 6.461C9.68008 6.50767 9.69174 6.54267 9.71508 6.566C9.71508 6.57533 9.71974 6.58233 9.72908 6.587C9.73841 6.59167 9.74774 6.594 9.75708 6.594C9.86441 6.594 9.98341 6.594 10.1141 6.594C10.2447 6.594 10.3637 6.58933 10.4711 6.58C10.6344 6.58 10.8047 6.58 10.9821 6.58C11.1641 6.57533 11.3367 6.58 11.5001 6.594C11.5654 6.60333 11.6144 6.61967 11.6471 6.643C11.6844 6.66633 11.7147 6.69667 11.7381 6.734C11.7661 6.77133 11.7847 6.81333 11.7941 6.86C11.8034 6.902 11.8081 6.94867 11.8081 7C11.8174 7.056 11.8127 7.10733 11.7941 7.154C11.7801 7.20533 11.7614 7.245 11.7381 7.273C11.7147 7.301 11.6867 7.32433 11.6541 7.343C11.6261 7.36633 11.5934 7.38967 11.5561 7.413C11.4627 7.455 11.3694 7.47367 11.2761 7.469C11.1874 7.469 11.0941 7.47367 10.9961 7.483C10.9121 7.483 10.8164 7.48533 10.7091 7.49C10.6017 7.49467 10.5037 7.49233 10.4151 7.483C10.3451 7.47367 10.2657 7.47133 10.1771 7.476C10.0931 7.48067 10.0184 7.483 9.95308 7.483C9.88774 7.47367 9.82474 7.47133 9.76408 7.476C9.70341 7.48067 9.64041 7.483 9.57508 7.483C9.46308 7.47367 9.35108 7.462 9.23908 7.448C9.12708 7.434 9.02441 7.39433 8.93108 7.329C8.86574 7.29167 8.81674 7.22867 8.78408 7.14C8.75608 7.084 8.73508 7.021 8.72108 6.951C8.70708 6.881 8.70474 6.81333 8.71408 6.748C8.71874 6.64533 8.71874 6.53333 8.71408 6.412C8.71408 6.286 8.71174 6.16 8.70708 6.034C8.70708 5.908 8.70474 5.78433 8.70008 5.663C8.70008 5.537 8.70008 5.418 8.70008 5.306C8.70008 5.222 8.69774 5.13333 8.69308 5.04C8.69308 4.942 8.71408 4.858 8.75608 4.788C8.79808 4.72267 8.84474 4.676 8.89608 4.648C8.94741 4.61533 9.00108 4.59433 9.05708 4.585C9.11774 4.57567 9.17841 4.57333 9.23908 4.578C9.30441 4.578 9.36974 4.578 9.43508 4.578H10.0791C10.1071 4.578 10.1444 4.578 10.1911 4.578C10.2424 4.578 10.2937 4.578 10.3451 4.578C10.3964 4.57333 10.4477 4.571 10.4991 4.571C10.5504 4.56633 10.5901 4.55933 10.6181 4.55C10.6601 4.536 10.6881 4.508 10.7021 4.466C10.7254 4.34467 10.7371 4.21167 10.7371 4.067C10.7417 3.92233 10.7394 3.78933 10.7301 3.668C10.7301 3.61667 10.7301 3.55133 10.7301 3.472C10.7301 3.39267 10.7161 3.332 10.6881 3.29C10.6554 3.24333 10.5831 3.22 10.4711 3.22L9.16908 3.234C9.10374 3.234 9.03141 3.227 8.95208 3.213C8.87274 3.19433 8.81208 3.15933 8.77008 3.108C8.75608 3.08467 8.74208 3.06367 8.72808 3.045C8.71408 3.02167 8.70008 2.99133 8.68608 2.954C8.64874 2.828 8.65808 2.71367 8.71408 2.611C8.77474 2.50833 8.87041 2.443 9.00108 2.415C9.11308 2.39167 9.22508 2.38467 9.33708 2.394C9.44908 2.39867 9.56108 2.39633 9.67308 2.387H10.7301C10.8234 2.387 10.9191 2.387 11.0171 2.387C11.1151 2.387 11.2107 2.401 11.3041 2.429C11.4021 2.457 11.4861 2.527 11.5561 2.639C11.5654 2.66233 11.5724 2.68333 11.5771 2.702C11.5817 2.72067 11.5887 2.744 11.5981 2.772C11.6074 2.79533 11.6144 2.81633 11.6191 2.835C11.6237 2.85367 11.6261 2.87467 11.6261 2.898C11.6354 2.97733 11.6401 3.07067 11.6401 3.178C11.6401 3.28533 11.6401 3.374 11.6401 3.444C11.6401 3.59333 11.6424 3.752 11.6471 3.92C11.6517 4.088 11.6541 4.24667 11.6541 4.396C11.6541 4.55 11.6517 4.69933 11.6471 4.844C11.6471 4.98867 11.6261 5.11467 11.5841 5.222C11.5374 5.31533 11.4721 5.376 11.3881 5.404C11.3087 5.44133 11.2224 5.45767 11.1291 5.453C11.0357 5.44833 10.9494 5.446 10.8701 5.446C10.8187 5.446 10.7581 5.44833 10.6881 5.453C10.6181 5.453 10.5481 5.453 10.4781 5.453C10.4081 5.453 10.3404 5.45533 10.2751 5.46C10.2144 5.46 10.1631 5.46 10.1211 5.46C10.0837 5.46 10.0511 5.46 10.0231 5.46C9.99974 5.45533 9.97641 5.453 9.95308 5.453C9.93441 5.44833 9.91341 5.44833 9.89008 5.453C9.86674 5.453 9.83641 5.45533 9.79908 5.46ZM13.6141 7.168C13.6047 7.224 13.5977 7.27767 13.5931 7.329C13.5884 7.385 13.5767 7.441 13.5581 7.497C13.5487 7.51567 13.5417 7.532 13.5371 7.546C13.5324 7.56 13.5254 7.57633 13.5161 7.595C13.4834 7.66033 13.4414 7.71167 13.3901 7.749C13.2827 7.81433 13.1637 7.83067 13.0331 7.798C12.9584 7.784 12.8977 7.756 12.8511 7.714C12.8091 7.67667 12.7764 7.62767 12.7531 7.567C12.7344 7.511 12.7181 7.455 12.7041 7.399C12.6947 7.343 12.6901 7.294 12.6901 7.252C12.6901 7.21 12.6901 7.18667 12.6901 7.182V3.059C12.6901 3.003 12.6901 2.94233 12.6901 2.877C12.6901 2.81167 12.6947 2.74633 12.7041 2.681C12.7134 2.61567 12.7274 2.555 12.7461 2.499C12.7647 2.443 12.7904 2.39867 12.8231 2.366C12.8744 2.31467 12.9281 2.28433 12.9841 2.275C13.0401 2.261 13.1007 2.254 13.1661 2.254C13.2454 2.254 13.3177 2.27733 13.3831 2.324C13.4531 2.366 13.5021 2.42667 13.5301 2.506C13.5721 2.604 13.5954 2.70667 13.6001 2.814C13.6047 2.92133 13.6094 3.02867 13.6141 3.136V3.171C13.6234 3.53033 13.6257 3.86633 13.6211 4.179C13.6164 4.487 13.6141 4.809 13.6141 5.145V6.916C13.6141 6.958 13.6141 7 13.6141 7.042C13.6187 7.084 13.6187 7.126 13.6141 7.168Z" fill="#FCFCFC"/>
<path d="M6.535 11.109C6.535 11.3283 6.486 11.536 6.388 11.732C6.29 11.928 6.15233 12.0937 5.975 12.229C5.81633 12.3457 5.64133 12.4273 5.45 12.474C5.26333 12.5207 5.07433 12.537 4.883 12.523C4.69167 12.509 4.50733 12.467 4.33 12.397C4.15267 12.3223 3.994 12.2243 3.854 12.103C3.71867 11.9817 3.609 11.837 3.525 11.669C3.441 11.501 3.399 11.3143 3.399 11.109C3.399 10.9223 3.427 10.7543 3.483 10.605C3.539 10.4557 3.616 10.3227 3.714 10.206H3.588C3.47133 10.206 3.37333 10.171 3.294 10.101C3.21467 10.0263 3.175 9.93767 3.175 9.835C3.175 9.72767 3.21467 9.639 3.294 9.569C3.37333 9.49433 3.47133 9.457 3.588 9.457H4.512V9.233C4.512 9.13967 4.55167 9.06267 4.631 9.002C4.71033 8.93667 4.806 8.904 4.918 8.904C5.03 8.904 5.12567 8.93667 5.205 9.002C5.28433 9.06267 5.324 9.13967 5.324 9.233V9.457H6.297C6.41367 9.457 6.51167 9.49433 6.591 9.569C6.67033 9.639 6.71 9.72767 6.71 9.835C6.71 9.93767 6.67033 10.0263 6.591 10.101C6.51167 10.171 6.41367 10.206 6.297 10.206H6.213C6.311 10.3227 6.388 10.4557 6.444 10.605C6.50467 10.7543 6.535 10.9223 6.535 11.109ZM7.648 12.964C7.844 12.964 7.98633 13.006 8.075 13.09C8.16833 13.174 8.215 13.2697 8.215 13.377V13.776C8.215 13.79 8.215 13.818 8.215 13.86C8.215 13.8973 8.215 13.937 8.215 13.979C8.215 14.021 8.215 14.0607 8.215 14.098C8.21967 14.1353 8.222 14.161 8.222 14.175C8.222 14.2263 8.222 14.2777 8.222 14.329C8.222 14.3803 8.21967 14.4317 8.215 14.483C8.20567 14.581 8.166 14.6603 8.096 14.721C8.03067 14.7817 7.94433 14.812 7.837 14.812C7.81367 14.812 7.77167 14.8097 7.711 14.805C7.655 14.805 7.61533 14.8003 7.592 14.791C7.52667 14.7723 7.47533 14.7443 7.438 14.707C7.40533 14.6697 7.37967 14.6277 7.361 14.581C7.34233 14.5343 7.33067 14.483 7.326 14.427C7.32133 14.3757 7.31667 14.3243 7.312 14.273C7.312 14.2543 7.312 14.2217 7.312 14.175C7.312 14.1283 7.30967 14.0793 7.305 14.028C7.305 13.9813 7.30267 13.937 7.298 13.895C7.29333 13.8483 7.28867 13.8157 7.284 13.797C7.27 13.7923 7.23267 13.7877 7.172 13.783C7.11133 13.7783 6.99233 13.776 6.815 13.776C6.66567 13.776 6.57233 13.7783 6.535 13.783C6.50233 13.783 6.48367 13.783 6.479 13.783H3.952C3.94733 13.783 3.92867 13.7783 3.896 13.769C3.868 13.7597 3.83533 13.7457 3.798 13.727C3.76067 13.7037 3.72567 13.6757 3.693 13.643C3.66033 13.6103 3.64167 13.5707 3.637 13.524C3.609 13.342 3.637 13.202 3.721 13.104C3.777 13.0387 3.83767 13.0013 3.903 12.992C3.96833 12.978 4.00333 12.9687 4.008 12.964H7.648ZM8.208 11.312V11.949C8.20333 12.0003 8.19633 12.054 8.187 12.11C8.17767 12.1613 8.159 12.2127 8.131 12.264C8.103 12.32 8.06333 12.3667 8.012 12.404C7.94667 12.4507 7.86967 12.474 7.781 12.474C7.70167 12.474 7.63633 12.4577 7.585 12.425C7.53833 12.397 7.501 12.362 7.473 12.32C7.445 12.278 7.42167 12.2383 7.403 12.201C7.389 12.159 7.37967 12.124 7.375 12.096C7.37033 12.0633 7.368 12.047 7.368 12.047V9.737C7.36333 9.71833 7.36567 9.667 7.375 9.583C7.38433 9.499 7.403 9.429 7.431 9.373C7.47767 9.275 7.571 9.219 7.711 9.205C7.88367 9.18167 8.012 9.21667 8.096 9.31C8.124 9.34733 8.14267 9.38467 8.152 9.422C8.166 9.45467 8.17767 9.48967 8.187 9.527C8.201 9.57367 8.208 9.62267 8.208 9.674C8.21267 9.72533 8.21267 9.77667 8.208 9.828V10.311V10.374C8.208 10.3973 8.20567 10.423 8.201 10.451C8.201 10.4743 8.20333 10.5023 8.208 10.535C8.22667 10.535 8.26167 10.5373 8.313 10.542C8.36433 10.542 8.418 10.5443 8.474 10.549C8.53 10.549 8.58367 10.5513 8.635 10.556C8.68633 10.5607 8.72367 10.5653 8.747 10.57C8.84033 10.5887 8.90567 10.6167 8.943 10.654C8.98033 10.6867 9.00367 10.7287 9.013 10.78C9.027 10.8313 9.034 10.892 9.034 10.962C9.034 11.0273 9.02 11.0833 8.992 11.13C8.936 11.2233 8.852 11.277 8.74 11.291C8.628 11.3003 8.50433 11.3073 8.369 11.312H8.208ZM5.107 11.732C5.25633 11.704 5.38467 11.6387 5.492 11.536C5.604 11.4287 5.66 11.2863 5.66 11.109C5.66 10.969 5.625 10.8523 5.555 10.759C5.48967 10.6657 5.40567 10.5957 5.303 10.549C5.20033 10.4977 5.08833 10.472 4.967 10.472C4.84567 10.4673 4.73367 10.4883 4.631 10.535C4.52833 10.5817 4.442 10.654 4.372 10.752C4.30667 10.8453 4.274 10.9643 4.274 11.109C4.274 11.235 4.29967 11.3423 4.351 11.431C4.40233 11.5197 4.46767 11.5897 4.547 11.641C4.62633 11.6923 4.715 11.725 4.813 11.739C4.911 11.753 5.009 11.7507 5.107 11.732Z" fill="#1A74E8"/>
<path d="M13.804 13.482C13.818 13.4867 13.832 13.489 13.846 13.489C13.86 13.4843 13.874 13.482 13.888 13.482C13.9673 13.4913 14.0396 13.5077 14.105 13.531C14.175 13.5497 14.2426 13.5893 14.308 13.65C14.3733 13.706 14.406 13.7853 14.406 13.888C14.406 13.9393 14.3966 13.993 14.378 14.049C14.364 14.1097 14.343 14.1563 14.315 14.189C14.2776 14.2263 14.231 14.2543 14.175 14.273C14.1236 14.2917 14.07 14.3033 14.014 14.308C13.9626 14.3173 13.916 14.322 13.874 14.322C13.8366 14.322 13.8156 14.322 13.811 14.322H10.031C10.0076 14.322 9.98429 14.322 9.96095 14.322C9.94229 14.3267 9.92129 14.329 9.89795 14.329C9.79529 14.3337 9.68795 14.3313 9.57595 14.322C9.46395 14.3173 9.36829 14.2823 9.28895 14.217C9.19095 14.1283 9.14195 14.028 9.14195 13.916C9.14195 13.846 9.16295 13.7737 9.20495 13.699C9.24695 13.6243 9.30295 13.573 9.37295 13.545C9.41962 13.5263 9.45929 13.5147 9.49195 13.51C9.52929 13.5007 9.56429 13.4937 9.59695 13.489C9.63429 13.4843 9.67162 13.482 9.70895 13.482C9.75095 13.482 9.80229 13.482 9.86295 13.482H10.066C10.0613 13.4633 10.059 13.4377 10.059 13.405V13.377V12.285C10.059 12.243 10.066 12.1987 10.08 12.152C10.0893 12.1147 10.1056 12.075 10.129 12.033C10.157 11.991 10.1966 11.9513 10.248 11.914C10.3086 11.872 10.3763 11.8463 10.451 11.837C10.5256 11.8277 10.5956 11.8347 10.661 11.858C10.731 11.8813 10.7893 11.921 10.836 11.977C10.8873 12.0283 10.9153 12.0937 10.92 12.173C10.92 12.215 10.92 12.2827 10.92 12.376C10.9246 12.4693 10.927 12.5767 10.927 12.698C10.9316 12.8193 10.934 12.9477 10.934 13.083C10.9386 13.2183 10.941 13.349 10.941 13.475C11.0436 13.475 11.144 13.4773 11.242 13.482C11.34 13.482 11.438 13.482 11.536 13.482C11.5313 13.4633 11.529 13.4377 11.529 13.405V13.377V12.285C11.529 12.243 11.536 12.1987 11.55 12.152C11.5593 12.1147 11.5756 12.075 11.599 12.033C11.627 11.991 11.6666 11.9513 11.718 11.914C11.7786 11.872 11.8463 11.8463 11.921 11.837C11.9956 11.8277 12.0656 11.8347 12.131 11.858C12.201 11.8813 12.2593 11.921 12.306 11.977C12.3573 12.0283 12.3853 12.0937 12.39 12.173C12.39 12.215 12.39 12.2827 12.39 12.376C12.3946 12.4693 12.397 12.5767 12.397 12.698C12.4016 12.8193 12.404 12.95 12.404 13.09C12.4086 13.2253 12.411 13.356 12.411 13.482C12.5323 13.4773 12.6746 13.475 12.838 13.475C13.006 13.475 13.1693 13.4773 13.328 13.482C13.412 13.4867 13.4936 13.4867 13.573 13.482C13.6523 13.4727 13.7293 13.4727 13.804 13.482ZM9.96095 10.409C9.88162 10.409 9.79062 10.3997 9.68795 10.381C9.58995 10.3577 9.51295 10.304 9.45695 10.22C9.42429 10.164 9.40329 10.101 9.39395 10.031C9.38462 9.961 9.38929 9.89333 9.40795 9.828C9.44529 9.69733 9.53162 9.60167 9.66695 9.541C9.69495 9.53167 9.72295 9.52233 9.75095 9.513C9.77895 9.50367 9.80929 9.49433 9.84195 9.485C9.93062 9.46167 10.003 9.45 10.059 9.45C10.1196 9.44533 10.1966 9.44067 10.29 9.436C10.332 9.436 10.3646 9.436 10.388 9.436C10.4113 9.436 10.4416 9.43367 10.479 9.429C10.5163 9.429 10.542 9.429 10.556 9.429C10.57 9.42433 10.598 9.422 10.64 9.422C10.6633 9.422 10.7216 9.422 10.815 9.422C10.9083 9.422 11.0156 9.422 11.137 9.422C11.263 9.422 11.396 9.42433 11.536 9.429C11.676 9.429 11.8066 9.429 11.928 9.429C12.054 9.429 12.1613 9.43133 12.25 9.436C12.3433 9.436 12.4016 9.436 12.425 9.436C12.495 9.44067 12.5673 9.443 12.642 9.443C12.7166 9.443 12.7913 9.443 12.866 9.443C12.95 9.443 13.0316 9.44533 13.111 9.45C13.195 9.45467 13.279 9.46167 13.363 9.471C13.4003 9.48033 13.4376 9.48733 13.475 9.492C13.517 9.49667 13.5566 9.51067 13.594 9.534C13.6453 9.562 13.685 9.604 13.713 9.66C13.741 9.71133 13.762 9.76967 13.776 9.835C13.7946 9.89567 13.8063 9.95867 13.811 10.024C13.8156 10.0893 13.818 10.1477 13.818 10.199C13.818 10.2643 13.818 10.3273 13.818 10.388C13.8226 10.4487 13.825 10.5117 13.825 10.577C13.8296 10.6657 13.832 10.7683 13.832 10.885C13.832 11.0017 13.8296 11.1043 13.825 11.193C13.8203 11.3843 13.8156 11.5733 13.811 11.76C13.811 11.942 13.811 12.1287 13.811 12.32C13.811 12.3947 13.804 12.4693 13.79 12.544C13.776 12.614 13.7456 12.6817 13.699 12.747C13.6476 12.8123 13.5846 12.859 13.51 12.887C13.4353 12.9103 13.3583 12.9103 13.279 12.887C13.1856 12.8637 13.1156 12.824 13.069 12.768C13.027 12.7073 12.9943 12.6397 12.971 12.565C12.9523 12.4857 12.9406 12.404 12.936 12.32C12.9313 12.2313 12.9243 12.1497 12.915 12.075C12.887 11.879 12.873 11.6877 12.873 11.501C12.8776 11.3937 12.8753 11.277 12.866 11.151C12.8566 11.0203 12.852 10.9037 12.852 10.801C12.852 10.7217 12.8473 10.647 12.838 10.577C12.8286 10.5023 12.7913 10.4463 12.726 10.409C12.698 10.395 12.6653 10.388 12.628 10.388C12.5906 10.388 12.5463 10.388 12.495 10.388H12.348C12.3246 10.3927 12.3013 10.395 12.278 10.395C12.2546 10.3903 12.2313 10.388 12.208 10.388H11.466C11.3726 10.388 11.291 10.3927 11.221 10.402C11.1556 10.4067 11.0763 10.409 10.983 10.409C10.8896 10.409 10.8056 10.409 10.731 10.409C10.661 10.4043 10.5793 10.4067 10.486 10.416C10.4486 10.4207 10.4183 10.4207 10.395 10.416C10.3763 10.4113 10.3483 10.409 10.311 10.409H9.96095Z" fill="#FCFCFC"/>
<path d="M7.711 18.9C7.79033 18.9047 7.86967 18.9163 7.949 18.935C8.033 18.9537 8.10767 18.9887 8.173 19.04C8.23833 19.0913 8.271 19.1637 8.271 19.257C8.271 19.3037 8.26167 19.3527 8.243 19.404C8.229 19.4553 8.208 19.4927 8.18 19.516C8.14267 19.5533 8.09367 19.5813 8.033 19.6C7.977 19.614 7.921 19.6257 7.865 19.635C7.809 19.6397 7.76 19.642 7.718 19.642C7.68067 19.642 7.65967 19.642 7.655 19.642L3.924 19.649C3.81667 19.6537 3.70467 19.6537 3.588 19.649C3.476 19.6443 3.38033 19.6093 3.301 19.544C3.19367 19.4647 3.14 19.3783 3.14 19.285C3.14 19.2197 3.161 19.1543 3.203 19.089C3.24967 19.019 3.31033 18.9723 3.385 18.949C3.483 18.9163 3.58333 18.9023 3.686 18.907C3.78867 18.907 3.89367 18.9047 4.001 18.9C4.113 18.8953 4.20867 18.893 4.288 18.893C4.372 18.893 4.45133 18.893 4.526 18.893C4.60533 18.893 4.687 18.8953 4.771 18.9C4.855 18.9 4.95533 18.9 5.072 18.9V18.501C4.876 18.4963 4.687 18.494 4.505 18.494C4.32767 18.4893 4.19467 18.4847 4.106 18.48C4.05 18.48 3.98467 18.4777 3.91 18.473C3.83533 18.4683 3.763 18.4567 3.693 18.438C3.62767 18.4193 3.567 18.3913 3.511 18.354C3.45967 18.3167 3.42467 18.2653 3.406 18.2C3.392 18.1487 3.38033 18.109 3.371 18.081C3.36633 18.053 3.35933 18.0273 3.35 18.004C3.34533 17.9807 3.34067 17.955 3.336 17.927C3.336 17.899 3.336 17.857 3.336 17.801V17.052C3.336 17.0567 3.33367 17.0403 3.329 17.003C3.329 16.9657 3.33133 16.9213 3.336 16.87C3.34067 16.814 3.35 16.7557 3.364 16.695C3.38267 16.6297 3.406 16.5737 3.434 16.527C3.462 16.4803 3.50633 16.443 3.567 16.415C3.63233 16.387 3.69533 16.366 3.756 16.352C3.82133 16.338 3.87967 16.331 3.931 16.331C3.98233 16.3263 4.015 16.324 4.029 16.324H7.109C7.207 16.324 7.30733 16.324 7.41 16.324C7.51733 16.324 7.61767 16.3427 7.711 16.38C7.79033 16.4127 7.844 16.4663 7.872 16.541C7.9 16.6157 7.91167 16.695 7.907 16.779C7.89767 16.8583 7.86733 16.926 7.816 16.982C7.76933 17.038 7.70633 17.0777 7.627 17.101C7.55233 17.1197 7.42167 17.129 7.235 17.129H7.081C7.05767 17.129 7.03667 17.1267 7.018 17.122H4.54C4.51667 17.1173 4.48167 17.1173 4.435 17.122C4.393 17.122 4.36033 17.129 4.337 17.143C4.323 17.1477 4.31367 17.1757 4.309 17.227C4.30433 17.2783 4.302 17.3343 4.302 17.395C4.302 17.451 4.302 17.507 4.302 17.563C4.30667 17.6143 4.31133 17.647 4.316 17.661C4.33467 17.6937 4.37433 17.7123 4.435 17.717C4.49567 17.717 4.55167 17.7147 4.603 17.71C4.659 17.71 4.73133 17.71 4.82 17.71C4.90867 17.71 5.03 17.71 5.184 17.71C5.338 17.71 5.534 17.71 5.772 17.71C6.01 17.71 6.304 17.71 6.654 17.71H7.172C7.28867 17.71 7.39367 17.7123 7.487 17.717C7.585 17.717 7.67367 17.7357 7.753 17.773C7.84633 17.815 7.90933 17.8943 7.942 18.011C7.96533 18.1277 7.942 18.2327 7.872 18.326C7.79733 18.4193 7.71567 18.4683 7.627 18.473C7.543 18.4777 7.44967 18.4823 7.347 18.487C7.30967 18.487 7.23967 18.4893 7.137 18.494C7.039 18.494 6.927 18.4963 6.801 18.501C6.67967 18.501 6.55133 18.501 6.416 18.501C6.28067 18.501 6.15933 18.501 6.052 18.501C6.05667 18.5663 6.059 18.6363 6.059 18.711C6.06367 18.781 6.066 18.844 6.066 18.9C6.19667 18.9 6.33667 18.9 6.486 18.9C6.63533 18.8953 6.78467 18.893 6.934 18.893C7.08333 18.893 7.22567 18.893 7.361 18.893C7.49633 18.893 7.613 18.8953 7.711 18.9ZM3.364 20.944C3.364 20.748 3.42467 20.587 3.546 20.461C3.66733 20.3303 3.83067 20.23 4.036 20.16C4.24133 20.0853 4.48167 20.034 4.757 20.006C5.037 19.978 5.33567 19.964 5.653 19.964C5.97033 19.964 6.26667 19.9733 6.542 19.992C6.822 20.0107 7.06467 20.055 7.27 20.125C7.48 20.1903 7.64567 20.2883 7.767 20.419C7.88833 20.5497 7.949 20.7247 7.949 20.944C7.949 21.1633 7.88833 21.336 7.767 21.462C7.64567 21.5927 7.48 21.6907 7.27 21.756C7.06467 21.826 6.822 21.8703 6.542 21.889C6.26667 21.9123 5.97033 21.924 5.653 21.924C5.33567 21.924 5.037 21.9123 4.757 21.889C4.48167 21.8703 4.24133 21.826 4.036 21.756C3.83067 21.6907 3.66733 21.5927 3.546 21.462C3.42467 21.336 3.364 21.1633 3.364 20.944ZM7.025 20.944C7.025 20.8693 6.983 20.8133 6.899 20.776C6.81967 20.734 6.71233 20.7037 6.577 20.685C6.44633 20.6663 6.29933 20.657 6.136 20.657C5.97267 20.6523 5.81167 20.65 5.653 20.65C5.49433 20.65 5.33567 20.6523 5.177 20.657C5.01833 20.657 4.876 20.6663 4.75 20.685C4.624 20.7037 4.52133 20.734 4.442 20.776C4.36733 20.8133 4.33 20.8693 4.33 20.944C4.33 21.0093 4.36733 21.0607 4.442 21.098C4.52133 21.14 4.624 21.1703 4.75 21.189C4.876 21.2123 5.01833 21.2263 5.177 21.231C5.33567 21.2357 5.49433 21.238 5.653 21.238C5.81167 21.238 5.97267 21.238 6.136 21.238C6.29933 21.2427 6.44633 21.238 6.577 21.224C6.71233 21.21 6.81967 21.182 6.899 21.14C6.983 21.098 7.025 21.0327 7.025 20.944Z" fill="#1A74E8"/>
<path d="M10.1571 16.198C10.2177 16.198 10.2761 16.2003 10.3321 16.205C10.3881 16.2097 10.4441 16.2167 10.5001 16.226C10.6774 16.254 10.8337 16.3357 10.9691 16.471C11.0811 16.5923 11.1721 16.7323 11.2421 16.891C11.3121 17.045 11.3657 17.2083 11.4031 17.381C11.4451 17.5537 11.4731 17.731 11.4871 17.913C11.5011 18.0903 11.5127 18.263 11.5221 18.431C11.5314 18.6457 11.5337 18.8603 11.5291 19.075C11.5291 19.2897 11.5174 19.502 11.4941 19.712C11.4707 19.9313 11.4357 20.153 11.3891 20.377C11.3471 20.5963 11.2677 20.7947 11.1511 20.972C11.0531 21.1213 10.9341 21.2427 10.7941 21.336C10.6587 21.434 10.5117 21.4993 10.3531 21.532C10.2084 21.56 10.0614 21.5647 9.91206 21.546C9.76273 21.5273 9.6204 21.4783 9.48506 21.399C9.35906 21.3243 9.2564 21.231 9.17706 21.119C9.1024 21.007 9.0324 20.8763 8.96706 20.727C8.87373 20.503 8.82006 20.272 8.80606 20.034C8.7874 19.838 8.7734 19.642 8.76406 19.446C8.7594 19.25 8.75706 19.054 8.75706 18.858C8.75706 18.5967 8.77106 18.3353 8.79906 18.074C8.8084 17.9667 8.81773 17.8617 8.82706 17.759C8.8364 17.6517 8.8504 17.5467 8.86906 17.444C8.88773 17.36 8.90406 17.2807 8.91806 17.206C8.93206 17.1313 8.95773 17.0543 8.99506 16.975C9.0324 16.8957 9.07206 16.821 9.11406 16.751C9.16073 16.681 9.2144 16.618 9.27506 16.562C9.47106 16.366 9.70673 16.2493 9.98206 16.212C10.0101 16.2073 10.0381 16.205 10.0661 16.205C10.0987 16.205 10.1291 16.2027 10.1571 16.198ZM13.6571 18.347C13.6804 18.347 13.7014 18.3493 13.7201 18.354C13.7434 18.3587 13.7667 18.361 13.7901 18.361C13.8134 18.3657 13.8391 18.3703 13.8671 18.375C13.8951 18.375 13.9231 18.3773 13.9511 18.382C14.0024 18.3913 14.0537 18.41 14.1051 18.438C14.1564 18.4613 14.1937 18.4987 14.2171 18.55C14.2497 18.6013 14.2661 18.662 14.2661 18.732C14.2661 18.7693 14.2637 18.8043 14.2591 18.837C14.2591 18.865 14.2544 18.8977 14.2451 18.935C14.2357 18.9723 14.2241 19.012 14.2101 19.054C14.2007 19.096 14.1797 19.1287 14.1471 19.152C14.0817 19.1987 14.0187 19.229 13.9581 19.243C13.8834 19.2523 13.7924 19.2547 13.6851 19.25C13.5777 19.2453 13.4867 19.2453 13.4121 19.25C13.4074 19.25 13.4027 19.2523 13.3981 19.257H13.3911L13.3841 19.264V19.285C13.3841 19.341 13.3841 19.4087 13.3841 19.488C13.3841 19.5673 13.3841 19.649 13.3841 19.733C13.3841 19.8123 13.3841 19.8917 13.3841 19.971C13.3841 20.0457 13.3841 20.1133 13.3841 20.174C13.3934 20.4167 13.3934 20.6547 13.3841 20.888V20.986C13.3841 21.0467 13.3817 21.112 13.3771 21.182C13.3771 21.2567 13.3724 21.329 13.3631 21.399C13.3537 21.469 13.3374 21.5343 13.3141 21.595C13.2907 21.6603 13.2581 21.714 13.2161 21.756C13.1601 21.8213 13.0854 21.854 12.9921 21.854C12.9921 21.854 12.9874 21.8517 12.9781 21.847C12.8661 21.8423 12.7751 21.8097 12.7051 21.749C12.6397 21.6883 12.5884 21.6137 12.5511 21.525C12.5184 21.4363 12.4974 21.343 12.4881 21.245C12.4787 21.1517 12.4741 21.0677 12.4741 20.993V16.835C12.4741 16.8303 12.4741 16.8093 12.4741 16.772C12.4741 16.73 12.4787 16.6833 12.4881 16.632C12.4974 16.576 12.5114 16.52 12.5301 16.464C12.5534 16.4033 12.5837 16.3543 12.6211 16.317C12.6537 16.2843 12.7004 16.261 12.7611 16.247C12.8264 16.2283 12.8847 16.219 12.9361 16.219C13.0387 16.219 13.1251 16.254 13.1951 16.324C13.2604 16.3893 13.2977 16.4593 13.3071 16.534C13.3211 16.604 13.3327 16.6787 13.3421 16.758C13.3467 16.7767 13.3491 16.8047 13.3491 16.842C13.3584 16.9213 13.3631 17.003 13.3631 17.087C13.3677 17.171 13.3724 17.255 13.3771 17.339C13.3771 17.3903 13.3771 17.4417 13.3771 17.493C13.3817 17.5397 13.3841 17.5887 13.3841 17.64C13.3794 17.668 13.3771 17.696 13.3771 17.724C13.3817 17.7473 13.3841 17.7707 13.3841 17.794V18.179C13.3841 18.2023 13.3841 18.228 13.3841 18.256C13.3841 18.284 13.3887 18.3097 13.3981 18.333C13.3981 18.3377 13.4214 18.34 13.4681 18.34C13.5147 18.34 13.5404 18.34 13.5451 18.34C13.5871 18.3493 13.6197 18.3517 13.6431 18.347H13.6571ZM10.1361 20.601C10.2247 20.601 10.3111 20.573 10.3951 20.517C10.4744 20.461 10.5304 20.3863 10.5631 20.293C10.5957 20.1997 10.6237 20.097 10.6471 19.985C10.6844 19.7703 10.7054 19.5417 10.7101 19.299C10.7147 19.0563 10.7124 18.823 10.7031 18.599C10.7031 18.5103 10.7007 18.417 10.6961 18.319C10.6914 18.2163 10.6821 18.116 10.6681 18.018C10.6587 17.92 10.6424 17.8267 10.6191 17.738C10.5957 17.6447 10.5631 17.563 10.5211 17.493C10.4744 17.4137 10.4184 17.353 10.3531 17.311C10.2877 17.269 10.2177 17.2527 10.1431 17.262C10.0637 17.2713 9.98906 17.2993 9.91906 17.346C9.85373 17.3927 9.80006 17.4627 9.75806 17.556L9.69506 17.703C9.66706 17.7917 9.64606 17.885 9.63206 17.983C9.61806 18.0763 9.6064 18.1697 9.59706 18.263C9.58773 18.3563 9.58073 18.452 9.57606 18.55C9.5714 18.648 9.56906 18.7437 9.56906 18.837C9.57373 18.9303 9.5714 19.0213 9.56206 19.11C9.5574 19.1987 9.55973 19.2897 9.56906 19.383C9.5784 19.5043 9.59006 19.635 9.60406 19.775C9.62273 19.915 9.65073 20.048 9.68806 20.174C9.73006 20.2953 9.78606 20.398 9.85606 20.482C9.92606 20.5613 10.0194 20.601 10.1361 20.601ZM15.5686 19.46C15.5219 19.4693 15.4893 19.488 15.4706 19.516C15.4519 19.544 15.4403 19.5767 15.4356 19.614C15.4309 19.6513 15.4309 19.6887 15.4356 19.726C15.4403 19.7633 15.4426 19.7983 15.4426 19.831C15.4426 19.859 15.4426 19.8963 15.4426 19.943C15.4426 19.985 15.4426 20.0317 15.4426 20.083C15.4426 20.1297 15.4426 20.1763 15.4426 20.223C15.4473 20.2697 15.4519 20.3093 15.4566 20.342C15.4566 20.37 15.4543 20.4097 15.4496 20.461C15.4496 20.5077 15.4613 20.5427 15.4846 20.566C15.4846 20.5753 15.4893 20.5823 15.4986 20.587C15.5079 20.5917 15.5173 20.594 15.5266 20.594C15.6339 20.594 15.7529 20.594 15.8836 20.594C16.0143 20.594 16.1333 20.5893 16.2406 20.58C16.4039 20.58 16.5743 20.58 16.7516 20.58C16.9336 20.5753 17.1063 20.58 17.2696 20.594C17.3349 20.6033 17.3839 20.6197 17.4166 20.643C17.4539 20.6663 17.4843 20.6967 17.5076 20.734C17.5356 20.7713 17.5543 20.8133 17.5636 20.86C17.5729 20.902 17.5776 20.9487 17.5776 21C17.5869 21.056 17.5823 21.1073 17.5636 21.154C17.5496 21.2053 17.5309 21.245 17.5076 21.273C17.4843 21.301 17.4563 21.3243 17.4236 21.343C17.3956 21.3663 17.3629 21.3897 17.3256 21.413C17.2323 21.455 17.1389 21.4737 17.0456 21.469C16.9569 21.469 16.8636 21.4737 16.7656 21.483C16.6816 21.483 16.5859 21.4853 16.4786 21.49C16.3713 21.4947 16.2733 21.4923 16.1846 21.483C16.1146 21.4737 16.0353 21.4713 15.9466 21.476C15.8626 21.4807 15.7879 21.483 15.7226 21.483C15.6573 21.4737 15.5943 21.4713 15.5336 21.476C15.4729 21.4807 15.4099 21.483 15.3446 21.483C15.2326 21.4737 15.1206 21.462 15.0086 21.448C14.8966 21.434 14.7939 21.3943 14.7006 21.329C14.6353 21.2917 14.5863 21.2287 14.5536 21.14C14.5256 21.084 14.5046 21.021 14.4906 20.951C14.4766 20.881 14.4743 20.8133 14.4836 20.748C14.4883 20.6453 14.4883 20.5333 14.4836 20.412C14.4836 20.286 14.4813 20.16 14.4766 20.034C14.4766 19.908 14.4743 19.7843 14.4696 19.663C14.4696 19.537 14.4696 19.418 14.4696 19.306C14.4696 19.222 14.4673 19.1333 14.4626 19.04C14.4626 18.942 14.4836 18.858 14.5256 18.788C14.5676 18.7227 14.6143 18.676 14.6656 18.648C14.7169 18.6153 14.7706 18.5943 14.8266 18.585C14.8873 18.5757 14.9479 18.5733 15.0086 18.578C15.0739 18.578 15.1393 18.578 15.2046 18.578H15.8486C15.8766 18.578 15.9139 18.578 15.9606 18.578C16.0119 18.578 16.0633 18.578 16.1146 18.578C16.1659 18.5733 16.2173 18.571 16.2686 18.571C16.3199 18.5663 16.3596 18.5593 16.3876 18.55C16.4296 18.536 16.4576 18.508 16.4716 18.466C16.4949 18.3447 16.5066 18.2117 16.5066 18.067C16.5113 17.9223 16.5089 17.7893 16.4996 17.668C16.4996 17.6167 16.4996 17.5513 16.4996 17.472C16.4996 17.3927 16.4856 17.332 16.4576 17.29C16.4249 17.2433 16.3526 17.22 16.2406 17.22L14.9386 17.234C14.8733 17.234 14.8009 17.227 14.7216 17.213C14.6423 17.1943 14.5816 17.1593 14.5396 17.108C14.5256 17.0847 14.5116 17.0637 14.4976 17.045C14.4836 17.0217 14.4696 16.9913 14.4556 16.954C14.4183 16.828 14.4276 16.7137 14.4836 16.611C14.5443 16.5083 14.6399 16.443 14.7706 16.415C14.8826 16.3917 14.9946 16.3847 15.1066 16.394C15.2186 16.3987 15.3306 16.3963 15.4426 16.387H16.4996C16.5929 16.387 16.6886 16.387 16.7866 16.387C16.8846 16.387 16.9803 16.401 17.0736 16.429C17.1716 16.457 17.2556 16.527 17.3256 16.639C17.3349 16.6623 17.3419 16.6833 17.3466 16.702C17.3513 16.7207 17.3583 16.744 17.3676 16.772C17.3769 16.7953 17.3839 16.8163 17.3886 16.835C17.3933 16.8537 17.3956 16.8747 17.3956 16.898C17.4049 16.9773 17.4096 17.0707 17.4096 17.178C17.4096 17.2853 17.4096 17.374 17.4096 17.444C17.4096 17.5933 17.4119 17.752 17.4166 17.92C17.4213 18.088 17.4236 18.2467 17.4236 18.396C17.4236 18.55 17.4213 18.6993 17.4166 18.844C17.4166 18.9887 17.3956 19.1147 17.3536 19.222C17.3069 19.3153 17.2416 19.376 17.1576 19.404C17.0783 19.4413 16.9919 19.4577 16.8986 19.453C16.8053 19.4483 16.7189 19.446 16.6396 19.446C16.5883 19.446 16.5276 19.4483 16.4576 19.453C16.3876 19.453 16.3176 19.453 16.2476 19.453C16.1776 19.453 16.1099 19.4553 16.0446 19.46C15.9839 19.46 15.9326 19.46 15.8906 19.46C15.8533 19.46 15.8206 19.46 15.7926 19.46C15.7693 19.4553 15.7459 19.453 15.7226 19.453C15.7039 19.4483 15.6829 19.4483 15.6596 19.453C15.6363 19.453 15.6059 19.4553 15.5686 19.46ZM19.3836 21.168C19.3743 21.224 19.3673 21.2777 19.3626 21.329C19.3579 21.385 19.3463 21.441 19.3276 21.497C19.3183 21.5157 19.3113 21.532 19.3066 21.546C19.3019 21.56 19.2949 21.5763 19.2856 21.595C19.2529 21.6603 19.2109 21.7117 19.1596 21.749C19.0523 21.8143 18.9333 21.8307 18.8026 21.798C18.7279 21.784 18.6673 21.756 18.6206 21.714C18.5786 21.6767 18.5459 21.6277 18.5226 21.567C18.5039 21.511 18.4876 21.455 18.4736 21.399C18.4643 21.343 18.4596 21.294 18.4596 21.252C18.4596 21.21 18.4596 21.1867 18.4596 21.182V17.059C18.4596 17.003 18.4596 16.9423 18.4596 16.877C18.4596 16.8117 18.4643 16.7463 18.4736 16.681C18.4829 16.6157 18.4969 16.555 18.5156 16.499C18.5343 16.443 18.5599 16.3987 18.5926 16.366C18.6439 16.3147 18.6976 16.2843 18.7536 16.275C18.8096 16.261 18.8703 16.254 18.9356 16.254C19.0149 16.254 19.0873 16.2773 19.1526 16.324C19.2226 16.366 19.2716 16.4267 19.2996 16.506C19.3416 16.604 19.3649 16.7067 19.3696 16.814C19.3743 16.9213 19.3789 17.0287 19.3836 17.136V17.171C19.3929 17.5303 19.3953 17.8663 19.3906 18.179C19.3859 18.487 19.3836 18.809 19.3836 19.145V20.916C19.3836 20.958 19.3836 21 19.3836 21.042C19.3883 21.084 19.3883 21.126 19.3836 21.168Z" fill="#FCFCFC"/>
</svg>
